<svg xmlns="http://www.w3.org/2000/svg" viewBox="0 0 900 600">
  <rect width="900" height="200" y="0" fill="#CE1126"/>
  <rect width="900" height="200" y="200" fill="#FFFFFF"/>
  <rect width="900" height="200" y="400" fill="#000000"/>
  <g transform="translate(450,300)">
    <path fill="#C09300" d="M0,-60 C33,-60 60,-33 60,0 C60,33 33,60 0,60 C-33,60 -60,33 -60,0 C-60,-33 -33,-60 0,-60 Z M0,-45 C-24.9,-45 -45,-24.9 -45,0 C-45,24.9 -24.9,45 0,45 C24.9,45 45,24.9 45,0 C45,-24.9 24.9,-45 0,-45 Z"/>
    <path fill="#C09300" d="M-8,-45 L-5,-20 L5,-20 L8,-45 Z M-8,45 L-5,20 L5,20 L8,45 Z M-45,-8 L-20,-5 L-20,5 L-45,8 Z M45,-8 L20,-5 L20,5 L45,8 Z"/>
    <ellipse cx="0" cy="0" rx="18" ry="24" fill="#C09300"/>
  </g>
</svg>
